<svg xmlns="http://www.w3.org/2000/svg" viewBox="0 0 512 512">
  <defs>
    <radialGradient id="bg" cx="50%" cy="38%" r="80%">
      <stop offset="0%" stop-color="#0a1a13"/>
      <stop offset="100%" stop-color="#04100c"/>
    </radialGradient>
    <radialGradient id="cell" cx="42%" cy="40%" r="65%">
      <stop offset="0%" stop-color="#d2ffe2"/>
      <stop offset="45%" stop-color="#7dffb0"/>
      <stop offset="100%" stop-color="#2e9960"/>
    </radialGradient>
    <radialGradient id="glow" cx="50%" cy="50%" r="50%">
      <stop offset="55%" stop-color="#7dffb0" stop-opacity="0.35"/>
      <stop offset="100%" stop-color="#7dffb0" stop-opacity="0"/>
    </radialGradient>
  </defs>
  <rect width="512" height="512" rx="112" fill="url(#bg)"/>
  <circle cx="256" cy="256" r="205" fill="url(#glow)"/>
  <path d="M256 116c42 0 78 14 102 40s38 60 38 100c0 41-15 76-40 101s-60 39-100 39c-41 0-76-14-101-39s-39-60-39-101c0-40 13-75 38-100s60-40 102-40z" fill="url(#cell)"/>
  <circle cx="216" cy="218" r="44" fill="#eafff2" opacity="0.55"/>
  <circle cx="228" cy="228" r="16" fill="#0a2e1c" opacity="0.6"/>
  <circle cx="332" cy="312" r="13" fill="#0a2e1c" opacity="0.18"/>
  <circle cx="298" cy="174" r="9" fill="#ffffff" opacity="0.3"/>
  <circle cx="172" cy="318" r="11" fill="#0a2e1c" opacity="0.15"/>
  <circle cx="395" cy="120" r="7" fill="#ffd87a" opacity="0.9"/>
  <circle cx="118" cy="150" r="5" fill="#6ee7ff" opacity="0.8"/>
  <circle cx="404" cy="392" r="5" fill="#ff8ad8" opacity="0.8"/>
</svg>
